<svg xmlns="http://www.w3.org/2000/svg" width="49" height="49" viewBox="0 0 49 49">
  <g id="Component_142_5" data-name="Component 142 – 5" transform="translate(0 49) rotate(-90)">
    <g id="Path_19414" data-name="Path 19414" fill="none">
      <path d="M24.5,0A24.5,24.5,0,1,1,0,24.5,24.5,24.5,0,0,1,24.5,0Z" stroke="none"/>
      <path d="M 24.5 1 C 21.32707977294922 1 18.24959945678711 1.621200561523438 15.3530387878418 2.846340179443359 C 12.5547981262207 4.029888153076172 10.04151153564453 5.724468231201172 7.882991790771484 7.882991790771484 C 5.724468231201172 10.04151153564453 4.029888153076172 12.5547981262207 2.846340179443359 15.3530387878418 C 1.621200561523438 18.24959945678711 1 21.32707977294922 1 24.5 C 1 27.67292022705078 1.621200561523438 30.75040054321289 2.846340179443359 33.64694976806641 C 4.029888153076172 36.44519805908203 5.724468231201172 38.95848083496094 7.882991790771484 41.11701202392578 C 10.04151153564453 43.27552795410156 12.5547981262207 44.97010803222656 15.3530387878418 46.15365982055664 C 18.24959945678711 47.37879943847656 21.32707977294922 48 24.5 48 C 27.67292022705078 48 30.75040054321289 47.37879943847656 33.64694976806641 46.15365982055664 C 36.4451904296875 44.97010803222656 38.95848083496094 43.27552795410156 41.11701202392578 41.11701202392578 C 43.27552795410156 38.95848083496094 44.97010803222656 36.4451904296875 46.15365982055664 33.64694976806641 C 47.37879943847656 30.75040054321289 48 27.67292022705078 48 24.5 C 48 21.32707977294922 47.37879943847656 18.24959945678711 46.15365982055664 15.3530387878418 C 44.97010803222656 12.5547981262207 43.27552795410156 10.04151153564453 41.11701202392578 7.882991790771484 C 38.95848083496094 5.724468231201172 36.44519805908203 4.029888153076172 33.64694976806641 2.846340179443359 C 30.75040054321289 1.621200561523438 27.67292022705078 1 24.5 1 M 24.5 0 C 38.03096771240234 0 49 10.96902084350586 49 24.5 C 49 38.03096771240234 38.03096771240234 49 24.5 49 C 10.96902084350586 49 0 38.03096771240234 0 24.5 C 0 10.96902084350586 10.96902084350586 0 24.5 0 Z" stroke="none" fill="#666"/>
    </g>
    <g id="Group_16165" data-name="Group 16165" transform="translate(-195 -554)">
      <g id="chevron_right_black_24dp_4_" data-name="chevron_right_black_24dp (4)" transform="translate(210 569)">
        <path id="Path_6184" data-name="Path 6184" d="M0,0H19V19H0Z" fill="none"/>
        <path id="Path_6185" data-name="Path 6185" d="M10,4,8.943,5.057,13.127,9.25H4v1.5h9.127L8.943,14.943,10,16l6-6Z" transform="translate(-0.665 0.335)" fill="#fff"/>
      </g>
    </g>
  </g>
</svg>
