<svg xmlns="http://www.w3.org/2000/svg" xmlns:xlink="http://www.w3.org/1999/xlink" width="1368" height="776" viewBox="0 0 1368 776">
  <defs>
    <clipPath id="clip-path">
      <rect id="daniele-levis-pelusi-YKsqkazGaOw-unsplash" width="1368" height="768" transform="translate(-1 1618)" fill="#ffe33d"/>
    </clipPath>
  </defs>
  <g id="Group_173974" data-name="Group 173974" transform="translate(1 -1610)">
    <rect id="daniele-levis-pelusi-YKsqkazGaOw-unsplash-2" data-name="daniele-levis-pelusi-YKsqkazGaOw-unsplash" width="1368" height="768" transform="translate(-1 1610)" fill="#02f195"/>
    <g id="Mask_Group_284" data-name="Mask Group 284" clip-path="url(#clip-path)">
      <g id="Group_173967" data-name="Group 173967" transform="translate(-20.306 -232.634)">
        <g id="Group_173966" data-name="Group 173966" transform="translate(501.055 1850.634)" opacity="0.18">
          <path id="Path_10097" data-name="Path 10097" d="M1040.255,1603.406C999.8,1528.6,917.9,1480.646,832.262,1480.646a238.286,238.286,0,0,0-80.768,14.142,26.711,26.711,0,0,0,18.176,50.235h.015c13.342-4.588,35.42-.284,48.775,3.678,16.112,4.765,27.559,12.688,34.865,22.609,7.361,9.9,11.086,22.291,11.645,35.809a112.8,112.8,0,0,1-4.946,36.28c-14.22,48.07-53.706,85.131-105.472,111.337-56.145,28.381-126.063,43.861-195.033,46.959a1.9,1.9,0,0,1-1.975-1.549,142.346,142.346,0,0,1,13.552-95.266c18.592-35.2,53.256-65.832,104.951-83.654.012-.035.033-.035.05-.047l6.93-2.187,35.149-10.974a1.9,1.9,0,0,0,1.28-1.313,1.87,1.87,0,0,0-.369-1.75L695.7,1576.515c-50.9-61.906-122.835-92.416-195.041-96.024A293.037,293.037,0,0,0,398.682,1493.4c-32.742,10.265-63.349,26.36-89.454,47.835a236.96,236.96,0,0,0-21.106,19.584c-.074.047-.121.13-.2.177a26.418,26.418,0,0,0-4.29,4.3h-.012l-2.1,2.732a.314.314,0,0,0-.071.107c-42.545,48.543-56.881,107.577-54.687,171.434,3.583,103.035,29.277,191.266,85.067,269.776,60.555,85.273,156.094,157.988,297.01,224.731a.125.125,0,0,1,.1.048l29.786,12.039a26.535,26.535,0,0,0,13.853,1.632.367.367,0,0,1,.189-.035,26.418,26.418,0,0,0,8.479-1.856l25.62-10.383.094-.059c140.916-66.731,236.549-139.506,297.2-224.85,40.183-56.5,64.772-118.067,76.774-186.477C1074.271,1747.879,1076.3,1670.115,1040.255,1603.406ZM301.518,1660.05c2.137-21.451,9.765-42.288,21.951-58.8.044-.047.074-.118.13-.141a181.864,181.864,0,0,1,19.521-18.625c20.615-16.934,45.079-29.754,71.476-38.008a240.66,240.66,0,0,1,83.55-10.631c45.333,2.307,90.406,17.561,127.284,47.61a1.969,1.969,0,0,1,.7,1.738,1.865,1.865,0,0,1-1.064,1.514c-47.574,23.414-81.156,57.141-101.28,95.243A195.233,195.233,0,0,0,503.1,1799.107a1.858,1.858,0,0,1-.491,1.561,1.881,1.881,0,0,1-1.531.615c-37.957-2.176-79.426-8.551-115.133-22.245-31.846-12.274-58.874-30.426-73.209-56.892C302.818,1703.816,299.336,1681.738,301.518,1660.05Zm616.938,237.043C836.428,1974.561,725.4,2027.4,662.394,2036.954a26.779,26.779,0,1,0,7.938,52.966c71.1-10.749,194.888-69,284.756-153.9,5.552-5.2,10.96-10.549,16.227-15.964a1.866,1.866,0,0,1,2.49-.237,1.889,1.889,0,0,1,.633,2.389,386.879,386.879,0,0,1-33.836,57.424c-55.148,77.588-143.994,144.708-276.061,207.313a.561.561,0,0,0-.121.072l-14.052,5.652a2.061,2.061,0,0,1-1.458,0l-17.513-7.108a.135.135,0,0,1-.1-.047c-132.1-62.593-220.874-129.608-275.907-207.124-41.918-59-64.621-124.853-72.5-200.276a1.9,1.9,0,0,1,1.135-1.964,1.942,1.942,0,0,1,2.22.485c21.165,23.272,49.345,40.159,80.671,52.221,53.4,20.517,116.313,26.737,166.855,26.737,84.875.084,174.22-17.417,244.853-53.144,64.3-32.5,113.854-80.259,132.692-144a165.619,165.619,0,0,0,7.024-53.439c-.181-4.364-.564-8.68-1.162-12.973a1.922,1.922,0,0,1,3.672-1.029,177.744,177.744,0,0,1,14.374,52.305c4.7,42.571-8.343,82.424-31.754,117.853-24.594,37.168-60.508,69.665-99.828,95.834-58.123,38.623-122.71,63.018-169.442,68.139a26.738,26.738,0,1,0,5.638,53.179c54.383-5.972,128.2-33.43,193.336-76.735,44.851-29.8,86.081-67.371,114.873-110.9,29.948-45.28,46.507-96.9,40.346-153.046-.464-4.3-1.079-8.62-1.8-12.973a1.912,1.912,0,0,1,3.527-1.324C1049.541,1720.324,997.976,1821.989,918.455,1897.093Z" transform="translate(-226.544 -1480.118)" fill="#fff"/>
          <path id="Path_10098" data-name="Path 10098" d="M328.669,1573a33.383,33.383,0,1,0-33.38-33.407A33.381,33.381,0,0,0,328.669,1573Z" transform="translate(-76.341 -1423.076)" fill="#fff"/>
        </g>
      </g>
    </g>
  </g>
</svg>
