<svg xmlns="http://www.w3.org/2000/svg" width="84.317" height="124" viewBox="0 0 84.317 124">
  <g id="Group_173929" data-name="Group 173929" transform="translate(-948.683 -1292)">
    <text id="Twitter" transform="translate(991 1410)" font-size="22" font-family="LexendDeca-Regular, Lexend Deca"><tspan x="-36" y="0">Twitter</tspan></text>
    <path id="Twitter-Logo.wine" d="M26.517,68.525a49.794,49.794,0,0,0,21.114-4.476A46.7,46.7,0,0,0,63.059,52.487a51.1,51.1,0,0,0,9.462-15.848A49.765,49.765,0,0,0,75.737,19.3q0-.281,0-.561t-.009-.56q-.006-.279-.015-.558t-.022-.557q1.27-.919,2.45-1.945t2.263-2.15q1.083-1.124,2.064-2.342t1.852-2.521q-1.162.517-2.368.948T79.5,9.833q-1.244.342-2.524.594t-2.592.408A17.446,17.446,0,0,0,76.9,9,17.447,17.447,0,0,0,79.04,6.762a17.313,17.313,0,0,0,1.717-2.6,17.143,17.143,0,0,0,1.232-2.9q-1.273.755-2.6,1.4t-2.709,1.17q-1.378.527-2.8.935T71,5.466a17.355,17.355,0,0,0-5.631-3.994A17.2,17.2,0,0,0,62.006.381,17.292,17.292,0,0,0,41.078,17.3q0,.509.028,1.011t.085,1q.056.494.14.978t.2.96a49.188,49.188,0,0,1-10.437-1.657A48.894,48.894,0,0,1,21.5,15.858a49.257,49.257,0,0,1-8.488-5.553A49.486,49.486,0,0,1,5.868,3.167a17.309,17.309,0,0,0,5.356,23.094A17.17,17.17,0,0,1,3.389,24.1c0,.018,0,.036,0,.054s0,.036,0,.054,0,.037,0,.055,0,.038,0,.057A17.3,17.3,0,0,0,17.265,41.276q-.557.152-1.123.266T15,41.733q-.571.076-1.147.114t-1.154.038q-.409,0-.818-.02t-.815-.059q-.407-.039-.812-.1t-.807-.136a17.292,17.292,0,0,0,16.16,12.015A34.889,34.889,0,0,1,20.9,56.7a34.611,34.611,0,0,1-10.826,3.786,35.109,35.109,0,0,1-5.944.5q-.523,0-1.043-.015t-1.036-.045q-.516-.03-1.028-.075T0,60.753a49.435,49.435,0,0,0,6,3.284A48.834,48.834,0,0,0,19.329,68a49.368,49.368,0,0,0,7.189.524" transform="translate(948.683 1292)" fill="#1da1f2"/>
  </g>
</svg>
