<svg xmlns="http://www.w3.org/2000/svg" width="84" height="131.269" viewBox="0 0 84 131.269">
  <g id="Group_173984" data-name="Group 173984" transform="translate(-950.683 -1084.731)">
    <g id="Group_173977" data-name="Group 173977">
      <g id="Group_173926" data-name="Group 173926" transform="translate(-103)">
        <text id="Tiktok" transform="translate(1096 1210)" font-size="22" font-family="LexendDeca-Regular, Lexend Deca"><tspan x="-32" y="0">Tiktok</tspan></text>
      </g>
    </g>
    <g id="tiktok-app-icon-seeklogo.com" transform="translate(950.683 1084.731)">
      <path id="Path_19444" data-name="Path 19444" d="M63.344,84H20.656A20.657,20.657,0,0,1,0,63.344V20.656A20.657,20.657,0,0,1,20.656,0H63.344A20.657,20.657,0,0,1,84,20.656V63.344A20.654,20.654,0,0,1,63.344,84Z"/>
      <g id="Group_173994" data-name="Group 173994" transform="translate(12.453 10.1)">
        <path id="Path_19445" data-name="Path 19445" d="M65.608,117.067v-2.539a18.708,18.708,0,0,0-2.664-.228,19.744,19.744,0,0,0-11.321,35.95,19.723,19.723,0,0,1,13.984-33.183Z" transform="translate(-43.156 -91.416)" fill="#25f4ee"/>
        <path id="Path_19446" data-name="Path 19446" d="M104.671,89.4a9.03,9.03,0,0,0,9.009-8.634V37.724h7.864A14.631,14.631,0,0,1,121.315,35H110.56V78a9.032,9.032,0,0,1-9.009,8.7,9.168,9.168,0,0,1-4.161-1.039A9.025,9.025,0,0,0,104.671,89.4Zm31.558-37.076V49.936a14.7,14.7,0,0,1-8.135-2.456A14.9,14.9,0,0,0,136.229,52.329Z" transform="translate(-81.74 -35)" fill="#25f4ee"/>
      </g>
      <path id="Path_19447" data-name="Path 19447" d="M116.152,54.15a14.8,14.8,0,0,1-3.682-9.78H109.6a14.88,14.88,0,0,0,6.553,9.78ZM89.583,75.308a9.03,9.03,0,0,0-4.161,17.02,9.007,9.007,0,0,1,7.3-14.293,9.471,9.471,0,0,1,2.664.418V67.508a18.688,18.688,0,0,0-2.664-.208h-.479v8.322A9.126,9.126,0,0,0,89.583,75.308Z" transform="translate(-57.341 -31.566)" fill="#fe2c55"/>
      <path id="Path_19448" data-name="Path 19448" d="M118.528,95.05v8.322a25.522,25.522,0,0,1-14.916-4.848v21.865a19.785,19.785,0,0,1-19.784,19.744,19.57,19.57,0,0,1-11.318-3.578,19.744,19.744,0,0,0,34.2-13.439v-21.8a25.581,25.581,0,0,0,14.936,4.785V95.385a15.344,15.344,0,0,1-3.122-.335Z" transform="translate(-51.586 -67.621)" fill="#fe2c55"/>
      <path id="Path_19449" data-name="Path 19449" d="M90.223,84.337V62.472a25.54,25.54,0,0,0,14.936,4.785V58.934A14.928,14.928,0,0,1,97,54.15a14.9,14.9,0,0,1-6.553-9.78H82.587V87.436a9.03,9.03,0,0,1-16.333,4.932,9.028,9.028,0,0,1,4.161-17.017,9.265,9.265,0,0,1,2.664.416V67.32A19.814,19.814,0,0,0,59.1,100.734a19.575,19.575,0,0,0,11.338,3.35A19.79,19.79,0,0,0,90.223,84.337Z" transform="translate(-38.197 -31.566)" fill="#fff"/>
    </g>
  </g>
</svg>
