<svg xmlns="http://www.w3.org/2000/svg" xmlns:xlink="http://www.w3.org/1999/xlink" width="699" height="568" viewBox="0 0 699 568">
  <defs>
    <clipPath id="clip-path">
      <rect id="Rectangle_144479" data-name="Rectangle 144479" width="699" height="568" fill="#fff"/>
    </clipPath>
  </defs>
  <g id="Mask_Group_286" data-name="Mask Group 286" clip-path="url(#clip-path)">
    <g id="Group_173970" data-name="Group 173970" transform="translate(73 23.086)">
      <g id="Group_173970-2" data-name="Group 173970" opacity="0.18">
        <path id="Path_19440" data-name="Path 19440" d="M1093.842,1601.526c-43.116-73.667-130.417-120.889-221.691-120.889a272.817,272.817,0,0,0-86.087,13.927c-14.762,4.974-22.41,20.066-17.066,33.714,5.366,13.637,21.692,20.694,36.439,15.756h.016c14.221-4.518,37.753-.28,51.987,3.622,17.173,4.692,29.374,12.495,37.161,22.265,7.846,9.747,11.816,21.952,12.412,35.263.513,11.318-1.361,23.476-5.272,35.727-15.157,47.338-57.242,83.834-112.418,109.64-59.842,27.948-134.365,43.192-207.876,46.243a2,2,0,0,1-2.1-1.525,130.788,130.788,0,0,1,14.445-93.814c19.817-34.668,56.763-64.829,111.863-82.379.013-.035.035-.035.054-.047l7.386-2.154,37.463-10.807a1.953,1.953,0,0,0,1.364-1.293,1.736,1.736,0,0,0-.394-1.723l-24.928-28.007c-54.252-60.962-130.924-91.008-207.886-94.56a336.5,336.5,0,0,0-108.69,12.716c-34.9,10.109-67.521,25.958-95.345,47.105a246.092,246.092,0,0,0-22.5,19.285c-.079.047-.129.128-.211.174a27.181,27.181,0,0,0-4.572,4.239h-.013l-2.243,2.69a.308.308,0,0,0-.076.106c-45.347,47.8-60.627,105.937-58.289,168.821,3.819,101.465,31.205,188.351,90.669,265.664,64.543,83.973,166.373,155.58,316.569,221.306a.138.138,0,0,1,.107.047l31.747,11.855a30.453,30.453,0,0,0,14.766,1.607.416.416,0,0,1,.2-.035,30.157,30.157,0,0,0,9.037-1.828l27.307-10.225.1-.059c150.2-65.714,252.127-137.379,316.771-221.422,42.829-55.642,69.037-116.267,81.83-183.635C1130.1,1743.8,1132.256,1667.219,1093.842,1601.526Zm-787.387,55.781c2.278-21.125,10.408-41.644,23.4-57.9.047-.047.079-.116.139-.139a188.222,188.222,0,0,1,20.807-18.341c21.972-16.676,48.047-29.3,76.183-37.429a276.355,276.355,0,0,1,89.052-10.469c48.319,2.271,96.36,17.294,135.666,46.884a1.869,1.869,0,0,1,.747,1.712,1.849,1.849,0,0,1-1.134,1.491c-50.707,23.057-86.5,56.27-107.95,93.791-21.043,36.893-28.2,77.779-22.048,117.338a1.742,1.742,0,0,1-.523,1.537,2.093,2.093,0,0,1-1.632.606c-40.456-2.143-84.657-8.421-122.715-21.906-33.943-12.087-62.751-29.962-78.03-56.025C307.841,1700.406,304.129,1678.664,306.455,1657.307Zm657.566,233.43c-87.429,76.287-205.765,128.32-272.924,137.729-15.591,2.166-26.34,15.581-24,30.011,2.319,14.4,16.877,24.314,32.459,22.148,75.777-10.585,207.722-67.95,303.508-151.551,5.918-5.125,11.681-10.388,17.3-15.721a2.109,2.109,0,0,1,2.654-.234,1.778,1.778,0,0,1,.674,2.353,375.628,375.628,0,0,1-36.064,56.549c-58.78,76.406-153.476,142.5-294.241,204.152a.619.619,0,0,0-.129.071l-14.977,5.566a2.366,2.366,0,0,1-1.553,0l-18.667-7a.148.148,0,0,1-.107-.047c-140.8-61.638-235.42-127.632-294.077-203.967-44.679-58.1-68.876-122.95-77.274-197.223a1.859,1.859,0,0,1,1.21-1.934,2.19,2.19,0,0,1,2.366.478c22.559,22.917,52.595,39.547,85.983,51.425,56.921,20.2,123.973,26.329,177.843,26.329,90.464.083,185.693-17.152,260.978-52.334,68.536-32,121.352-79.036,141.43-141.8a151.5,151.5,0,0,0,7.487-52.625,122.4,122.4,0,0,0-1.238-12.775,1.892,1.892,0,0,1,1.472-2.095,2.1,2.1,0,0,1,2.442,1.082c8.413,17.725,13.37,34.913,15.32,51.508C986.9,1682.752,973,1722,948.048,1756.886c-26.214,36.6-64.493,68.6-106.4,94.373-61.95,38.034-130.792,62.058-180.6,67.1-15.648,1.525-26.995,14.51-25.341,28.962s15.7,24.944,31.35,23.406c57.964-5.88,136.646-32.92,206.067-75.565,47.805-29.347,91.75-66.344,122.438-109.209,31.921-44.59,49.57-95.422,43-150.714-.494-4.238-1.15-8.489-1.922-12.776a1.861,1.861,0,0,1,1.3-2.118,2.1,2.1,0,0,1,2.461.815C1103.739,1716.663,1048.778,1816.778,964.021,1890.737Z" transform="translate(-226.544 -1480.118)" fill="#fff"/>
        <path id="Path_19441" data-name="Path 19441" d="M330.868,1571.979c19.672,0,35.607-14.7,35.607-32.9,0-18.143-15.935-32.851-35.607-32.851-19.653,0-35.579,14.708-35.579,32.851C295.289,1557.283,311.214,1571.979,330.868,1571.979Z" transform="translate(-61.922 -1424.343)" fill="#fff"/>
      </g>
    </g>
  </g>
</svg>
