<svg xmlns="http://www.w3.org/2000/svg" xmlns:xlink="http://www.w3.org/1999/xlink" width="1366" height="300" viewBox="0 0 1366 300">
  <defs>
    <clipPath id="clip-path">
      <rect id="luke-chesser-eICUFSeirc0-unsplash" width="1366" height="300" transform="translate(-3860 1294)" fill="#02ef93"/>
    </clipPath>
  </defs>
  <g id="Group_173983" data-name="Group 173983" transform="translate(0 -5095)">
    <rect id="luke-chesser-eICUFSeirc0-unsplash-2" data-name="luke-chesser-eICUFSeirc0-unsplash" width="1366" height="300" transform="translate(0 5095)" fill="#02ef93"/>
    <g id="Mask_Group_285" data-name="Mask Group 285" transform="translate(3860 3801)" clip-path="url(#clip-path)">
      <g id="Group_173969" data-name="Group 173969" transform="translate(-3410.055 -541.047)">
        <g id="Group_173966" data-name="Group 173966" transform="translate(501.055 1850.634)" opacity="0.18">
          <path id="Path_10097" data-name="Path 10097" d="M685.147,1549.6c-22.8-42.161-68.961-69.187-117.224-69.187a134.3,134.3,0,0,0-45.521,7.971,15.054,15.054,0,0,0,10.244,28.312h.008c7.52-2.586,19.963-.16,27.489,2.073,9.081,2.685,15.532,7.151,19.649,12.742,4.149,5.578,6.248,12.563,6.563,20.182a63.572,63.572,0,0,1-2.788,20.447c-8.014,27.092-30.268,47.979-59.443,62.749-31.643,16-71.048,24.72-109.919,26.466a1.073,1.073,0,0,1-1.113-.873,80.225,80.225,0,0,1,7.638-53.691c10.479-19.841,30.015-37.1,59.15-47.147.007-.02.018-.02.028-.027l3.906-1.233,19.81-6.185a1.073,1.073,0,0,0,.721-.74,1.054,1.054,0,0,0-.208-.986l-13.181-16.029c-28.687-34.89-69.229-52.085-109.924-54.118a165.153,165.153,0,0,0-57.472,7.278,149.909,149.909,0,0,0-50.416,26.959,133.555,133.555,0,0,0-11.895,11.037c-.042.027-.068.073-.112.1a14.884,14.884,0,0,0-2.418,2.426h-.007l-1.186,1.54a.178.178,0,0,0-.04.061c-23.978,27.359-32.058,60.63-30.821,96.619,2.02,58.07,16.5,107.8,47.943,152.044,34.129,48.059,87.973,89.041,167.393,126.657a.071.071,0,0,1,.057.027l16.787,6.785a14.958,14.958,0,0,0,7.808.92.206.206,0,0,1,.107-.02,14.892,14.892,0,0,0,4.779-1.046l14.439-5.852.053-.033c79.419-37.609,133.318-78.625,167.5-126.724,22.647-31.844,36.5-66.542,43.269-105.1C704.318,1631.027,705.46,1587.2,685.147,1549.6ZM268.8,1581.527a67.574,67.574,0,0,1,12.372-33.137c.025-.027.042-.066.073-.08a102.5,102.5,0,0,1,11-10.5,119.706,119.706,0,0,1,40.284-21.421,135.635,135.635,0,0,1,47.088-5.992c25.549,1.3,50.952,9.9,71.736,26.833a1.11,1.11,0,0,1,.395.979,1.051,1.051,0,0,1-.6.853c-26.813,13.2-45.739,32.2-57.081,53.678A110.032,110.032,0,0,0,382.41,1659.9a1.047,1.047,0,0,1-.277.88,1.06,1.06,0,0,1-.863.347c-21.392-1.227-44.764-4.819-64.888-12.537-17.948-6.917-33.181-17.148-41.26-32.064C269.532,1606.193,267.569,1593.75,268.8,1581.527Zm347.7,133.6c-46.23,43.66-108.8,73.439-144.314,78.824a15.092,15.092,0,1,0,4.474,29.852c40.069-6.058,109.837-38.889,160.486-86.735,3.129-2.933,6.177-5.945,9.146-9a1.052,1.052,0,0,1,1.4-.134,1.065,1.065,0,0,1,.357,1.347,218.033,218.033,0,0,1-19.07,32.364c-31.081,43.728-81.154,81.557-155.586,116.84a.3.3,0,0,0-.068.041l-7.92,3.186a1.164,1.164,0,0,1-.821,0l-9.87-4.006a.076.076,0,0,1-.057-.027c-74.452-35.277-124.483-73.046-155.5-116.734-23.625-33.25-36.42-70.366-40.86-112.874a1.073,1.073,0,0,1,.64-1.107,1.1,1.1,0,0,1,1.251.274c11.928,13.116,27.811,22.633,45.466,29.432,30.1,11.564,65.553,15.069,94.039,15.069,47.835.047,98.189-9.816,138-29.951,36.24-18.314,64.167-45.233,74.784-81.157a93.341,93.341,0,0,0,3.959-30.118c-.1-2.459-.318-4.892-.655-7.312a1.083,1.083,0,0,1,2.069-.58,100.176,100.176,0,0,1,8.1,29.479c2.648,23.993-4.7,46.453-17.9,66.421-13.861,20.948-34.1,39.263-56.263,54.011-32.758,21.768-69.159,35.517-95.5,38.4a15.07,15.07,0,1,0,3.177,29.971c30.65-3.366,72.255-18.841,108.963-43.248,25.278-16.8,48.515-37.97,64.742-62.5,16.879-25.52,26.211-54.611,22.739-86.256-.261-2.426-.608-4.858-1.016-7.312a1.077,1.077,0,0,1,1.988-.746C690.38,1615.5,661.318,1672.794,616.5,1715.123Z" transform="translate(-226.544 -1480.118)" fill="#fff"/>
          <path id="Path_10098" data-name="Path 10098" d="M314.1,1543.859a18.815,18.815,0,1,0-18.813-18.828A18.814,18.814,0,0,0,314.1,1543.859Z" transform="translate(-171.891 -1459.365)" fill="#fff"/>
        </g>
      </g>
    </g>
  </g>
</svg>
