<svg xmlns="http://www.w3.org/2000/svg" width="106" height="130.984" viewBox="0 0 106 130.984">
  <g id="Group_173931" data-name="Group 173931" transform="translate(-294 -1285.016)">
    <text id="Facebook" transform="translate(347 1410)" font-size="22" font-family="LexendDeca-Regular, Lexend Deca"><tspan x="-52" y="0">Facebook</tspan></text>
    <g id="Facebook-f_Logo-Blue-Logo.wine" transform="translate(305.016 1285.016)">
      <path id="Path_19423" data-name="Path 19423" d="M83.968,41.984A41.988,41.988,0,1,0,35.424,83.459V54.12H24.764V41.984h10.66v-9.25a20.376,20.376,0,0,1,1.129-6.991,13.876,13.876,0,0,1,3.2-5.122,13.607,13.607,0,0,1,5-3.149A18.923,18.923,0,0,1,51.282,16.4c1.148,0,2.31.051,3.406.128s2.128.179,3.015.282,1.632.2,2.154.282.822.128.822.128V27.552H55.386a8.744,8.744,0,0,0-3.269.558,5.386,5.386,0,0,0-2.107,1.476,5.712,5.712,0,0,0-1.13,2.1,8.371,8.371,0,0,0-.336,2.425v7.876H60.188L58.327,54.12H48.544V83.459a41.7,41.7,0,0,0,14-4.862A41.925,41.925,0,0,0,83.969,41.984" fill="#1877f2"/>
      <path id="Path_19424" data-name="Path 19424" d="M33.563,37.72l1.861-12.136H23.78V17.709a8.371,8.371,0,0,1,.336-2.425,5.713,5.713,0,0,1,1.13-2.1,5.387,5.387,0,0,1,2.108-1.476,8.744,8.744,0,0,1,3.269-.558h5.294V.82s-.3-.051-.823-.128S33.827.512,32.94.41,31.021.205,29.924.128,27.667,0,26.518,0a18.923,18.923,0,0,0-6.524,1.073,13.606,13.606,0,0,0-5,3.149,13.876,13.876,0,0,0-3.2,5.122,20.376,20.376,0,0,0-1.129,6.991v9.25H0V37.72H10.66V67.058q.814.127,1.632.223t1.638.159q.821.064,1.643.1t1.647.032q.837,0,1.666-.033t1.649-.1q.82-.064,1.632-.16t1.613-.221V37.72h9.783" transform="translate(24.764 16.4)" fill="#fff"/>
    </g>
  </g>
</svg>
