<svg xmlns="http://www.w3.org/2000/svg" width="95.93" height="120.583" viewBox="0 0 95.93 120.583">
  <g id="Group_173928" data-name="Group 173928" transform="translate(-229.035 -1095.417)">
    <text id="Youtube" transform="translate(277 1210)" font-size="22" font-family="LexendDeca-Regular, Lexend Deca"><tspan x="-44" y="0">Youtube</tspan></text>
    <g id="g7433" transform="translate(229.035 1095.417)">
      <path id="path7429" d="M93.954,10.51A12.019,12.019,0,0,0,85.5,2.055C77.992,0,47.965,0,47.965,0S17.937,0,10.431,1.975A12.266,12.266,0,0,0,1.975,10.51C0,18.016,0,33.583,0,33.583S0,49.229,1.975,56.657a12.019,12.019,0,0,0,8.455,8.455c7.586,2.055,37.534,2.055,37.534,2.055s30.027,0,37.534-1.975a12.019,12.019,0,0,0,8.455-8.455c1.975-7.507,1.975-23.074,1.975-23.074s.079-15.646-1.975-23.153Z" transform="translate(0 0)" fill="red"/>
      <path id="polygon7431" d="M48.6,24.3V54.861L75.131,39.58Z" transform="translate(-11.041 -5.997)" fill="#fff"/>
    </g>
  </g>
</svg>
