<svg xmlns="http://www.w3.org/2000/svg" xmlns:xlink="http://www.w3.org/1999/xlink" width="114" height="141" viewBox="0 0 114 141">
  <defs>
    <radialGradient id="radial-gradient" cx="0.266" cy="1.077" r="0.991" gradientUnits="objectBoundingBox">
      <stop offset="0" stop-color="#fd5"/>
      <stop offset="0.1" stop-color="#fd5"/>
      <stop offset="0.5" stop-color="#ff543e"/>
      <stop offset="1" stop-color="#c837ab"/>
    </radialGradient>
    <radialGradient id="radial-gradient-2" cx="-0.168" cy="0.072" r="0.443" gradientUnits="objectBoundingBox">
      <stop offset="0" stop-color="#3771c8"/>
      <stop offset="0.128" stop-color="#3771c8"/>
      <stop offset="1" stop-color="#60f" stop-opacity="0"/>
    </radialGradient>
  </defs>
  <g id="Group_173927" data-name="Group 173927" transform="translate(-626 -1075)">
    <text id="Instagram" transform="translate(683 1210)" font-size="22" font-family="LexendDeca-Regular, Lexend Deca"><tspan x="-56" y="0">Instagram</tspan></text>
    <g id="Instagram-Logo.wine" transform="translate(636.543 1075)">
      <path id="Path_19433" data-name="Path 19433" d="M46.5,0c-4.851,0-8.845,0-12.123,0s-5.841.009-7.833.017-3.41.019-4.4.034-1.552.033-1.828.056c-1,.083-1.9.184-2.732.31s-1.6.278-2.329.461a19.341,19.341,0,0,0-2.089.651,21.191,21.191,0,0,0-2.01.88c-.52.258-1.013.527-1.484.811s-.922.583-1.359.9-.858.659-1.272,1.023-.82.754-1.225,1.174A19.629,19.629,0,0,0,3.817,8.751a19.132,19.132,0,0,0-1.561,2.693A20.2,20.2,0,0,0,1.127,14.4a22.931,22.931,0,0,0-.7,3.225c-.079.543-.143.979-.2,1.5S.137,20.254.1,21.139.049,23.188.033,24.825.008,28.571,0,31.347c0,.925,0,1.923,0,3s0,2.239,0,3.487,0,2.585,0,4.018,0,2.962,0,4.6c0,4.847,0,8.837,0,12.113S.017,64.4.026,66.389s.02,3.407.035,4.4.034,1.55.057,1.825c.08.969.179,1.848.3,2.663s.269,1.567.445,2.28a19.708,19.708,0,0,0,.626,2.054c.243.664.522,1.317.844,1.983a19.044,19.044,0,0,0,2.242,3.572,19.658,19.658,0,0,0,10.448,6.795c.479.123.971.233,1.481.33s1.039.181,1.593.254,1.133.134,1.744.186,1.252.092,1.931.125c.288.013,1.237.024,2.682.035s3.387.02,5.659.027,4.875.014,7.644.018,5.7.006,8.638.006,5.87,0,8.639,0,5.372-.006,7.643-.011,4.211-.013,5.653-.022,2.386-.021,2.667-.035c.786-.037,1.49-.08,2.136-.132s1.232-.113,1.783-.185,1.067-.157,1.572-.255,1-.212,1.5-.342A19.459,19.459,0,0,0,90.681,81.562a21.1,21.1,0,0,0,.834-1.957,20.005,20.005,0,0,0,.626-2.044c.177-.709.324-1.451.444-2.245s.215-1.641.287-2.559c.016-.2.029-1.148.04-2.657s.021-3.578.028-6.021.013-5.259.016-8.261.005-6.191.005-9.378,0-6.375-.005-9.376-.009-5.814-.017-8.254-.017-4.506-.029-6.013-.025-2.453-.041-2.653c-.073-.933-.168-1.79-.29-2.591s-.27-1.548-.449-2.261a19.7,19.7,0,0,0-.639-2.058,21.375,21.375,0,0,0-.858-1.984c-.267-.543-.542-1.051-.83-1.535s-.591-.941-.914-1.383-.666-.868-1.036-1.287-.768-.831-1.2-1.246A19.889,19.889,0,0,0,84.221,3.81a19.28,19.28,0,0,0-2.7-1.557,20.271,20.271,0,0,0-2.96-1.128,22.95,22.95,0,0,0-3.227-.7c-.543-.078-.977-.143-1.5-.2S72.718.135,71.834.1,69.786.047,68.15.031,64.4,0,61.625,0Z" fill="url(#radial-gradient)"/>
      <path id="Path_19434" data-name="Path 19434" d="M46.5,0c-4.851,0-8.845,0-12.123,0s-5.841.009-7.833.017-3.41.019-4.4.034-1.552.033-1.828.056c-1,.083-1.9.184-2.732.31s-1.6.278-2.329.461a19.341,19.341,0,0,0-2.089.651,21.191,21.191,0,0,0-2.01.88c-.52.258-1.013.527-1.484.811s-.922.583-1.359.9-.858.659-1.272,1.023-.82.754-1.225,1.174A19.629,19.629,0,0,0,3.817,8.751a19.132,19.132,0,0,0-1.561,2.693A20.2,20.2,0,0,0,1.127,14.4a22.931,22.931,0,0,0-.7,3.225c-.079.543-.143.979-.2,1.5S.137,20.254.1,21.139.049,23.188.033,24.825.008,28.571,0,31.347c0,.925,0,1.923,0,3s0,2.239,0,3.487,0,2.585,0,4.018,0,2.962,0,4.6c0,4.847,0,8.837,0,12.113S.017,64.4.026,66.389s.02,3.407.035,4.4.034,1.55.057,1.825c.08.969.179,1.848.3,2.663s.269,1.567.445,2.28a19.708,19.708,0,0,0,.626,2.054c.243.664.522,1.317.844,1.983a19.044,19.044,0,0,0,2.242,3.572,19.658,19.658,0,0,0,10.448,6.795c.479.123.971.233,1.481.33s1.039.181,1.593.254,1.133.134,1.744.186,1.252.092,1.931.125c.288.013,1.237.024,2.682.035s3.387.02,5.659.027,4.875.014,7.644.018,5.7.006,8.638.006,5.87,0,8.639,0,5.372-.006,7.643-.011,4.211-.013,5.653-.022,2.386-.021,2.667-.035c.786-.037,1.49-.08,2.136-.132s1.232-.113,1.783-.185,1.067-.157,1.572-.255,1-.212,1.5-.342A19.459,19.459,0,0,0,90.681,81.562a21.1,21.1,0,0,0,.834-1.957,20.005,20.005,0,0,0,.626-2.044c.177-.709.324-1.451.444-2.245s.215-1.641.287-2.559c.016-.2.029-1.148.04-2.657s.021-3.578.028-6.021.013-5.259.016-8.261.005-6.191.005-9.378,0-6.375-.005-9.376-.009-5.814-.017-8.254-.017-4.506-.029-6.013-.025-2.453-.041-2.653c-.073-.933-.168-1.79-.29-2.591s-.27-1.548-.449-2.261a19.7,19.7,0,0,0-.639-2.058,21.375,21.375,0,0,0-.858-1.984c-.267-.543-.542-1.051-.83-1.535s-.591-.941-.914-1.383-.666-.868-1.036-1.287-.768-.831-1.2-1.246A19.889,19.889,0,0,0,84.221,3.81a19.28,19.28,0,0,0-2.7-1.557,20.271,20.271,0,0,0-2.96-1.128,22.95,22.95,0,0,0-3.227-.7c-.543-.078-.977-.143-1.5-.2S72.718.135,71.834.1,69.786.047,68.15.031,64.4,0,61.625,0Z" fill="url(#radial-gradient-2)"/>
      <path id="Path_19435" data-name="Path 19435" d="M36.133,0c-2.453,0-4.37,0-5.925.009s-2.75.018-3.758.034-1.83.038-2.641.067S22.2.174,21.235.218s-1.847.115-2.67.211-1.584.216-2.3.359-1.376.308-2.005.494-1.224.391-1.8.614c-.594.231-1.166.481-1.72.758a17.057,17.057,0,0,0-3.167,2.04A20.43,20.43,0,0,0,4.7,7.576a17.1,17.1,0,0,0-2.041,3.167c-.277.554-.528,1.126-.76,1.72-.224.574-.43,1.169-.616,1.8S.928,15.554.785,16.266s-.263,1.473-.359,2.3S.26,20.27.217,21.231.139,22.994.111,23.8.06,25.437.044,26.445.017,28.648.01,30.2,0,33.675,0,36.128,0,40.5.01,42.053.027,44.8.044,45.809s.038,1.829.067,2.639.064,1.61.108,2.573.115,1.847.211,2.67.217,1.583.359,2.3.308,1.376.494,2.005.391,1.224.614,1.8c.231.594.481,1.166.758,1.72A17.067,17.067,0,0,0,4.7,64.677,20.491,20.491,0,0,0,7.577,67.56,17.061,17.061,0,0,0,10.743,69.6c.554.277,1.126.528,1.719.758.575.223,1.17.429,1.8.614s1.294.351,2.006.494,1.473.264,2.3.359,1.708.167,2.67.211,1.763.079,2.574.108,1.632.05,2.64.067,2.2.027,3.757.034,3.472.009,5.925.009,4.37,0,5.925-.009,2.749-.018,3.757-.034,1.829-.038,2.639-.067,1.61-.064,2.573-.108,1.847-.115,2.67-.211,1.584-.216,2.3-.359,1.377-.308,2.007-.494,1.225-.391,1.8-.614c.594-.231,1.165-.481,1.719-.758a17.042,17.042,0,0,0,3.164-2.042,20.558,20.558,0,0,0,2.881-2.883A17.1,17.1,0,0,0,69.6,61.511c.277-.554.528-1.126.76-1.72.222-.574.427-1.169.612-1.8s.35-1.293.493-2.005.264-1.473.36-2.3.168-1.708.214-2.669.079-1.763.107-2.573.05-1.632.067-2.639.028-2.2.034-3.757.01-3.472.01-5.925,0-4.37-.01-5.925-.018-2.75-.034-3.758-.038-1.83-.067-2.641-.064-1.61-.107-2.574-.117-1.847-.214-2.67-.217-1.583-.36-2.3-.308-1.376-.493-2.005-.39-1.224-.612-1.8c-.231-.594-.482-1.166-.76-1.72a17.094,17.094,0,0,0-2.041-3.167A20.464,20.464,0,0,0,64.68,4.694a17.014,17.014,0,0,0-3.164-2.04c-.554-.277-1.126-.527-1.721-.757-.576-.223-1.172-.429-1.8-.614S56.7.931,55.985.789s-1.474-.264-2.3-.359S51.98.262,51.018.218,49.256.139,48.445.11,46.814.06,45.806.043,43.6.016,42.049.009,38.576,0,36.122,0ZM32.891,6.511h3.241c2.412,0,4.292,0,5.815.008s2.69.016,3.674.031,1.785.036,2.579.063,1.579.062,2.532.105c.881.04,1.661.107,2.355.193s1.3.19,1.842.3,1.007.24,1.421.367.772.257,1.09.38c.422.164.813.335,1.182.521A10.533,10.533,0,0,1,60.648,9.8c.317.261.629.547.945.864s.6.628.864.946a10.672,10.672,0,0,1,.716.974,10.794,10.794,0,0,1,.6,1.053c.185.37.357.761.522,1.183.124.318.253.676.381,1.089s.252.881.367,1.42.219,1.148.3,1.842.152,1.474.193,2.355c.043.952.078,1.738.106,2.531s.049,1.595.064,2.579.026,2.15.032,3.672.009,3.4.009,5.812,0,4.29-.009,5.812-.016,2.689-.032,3.672-.036,1.785-.064,2.578-.063,1.579-.106,2.531c-.04.881-.107,1.661-.193,2.355s-.19,1.3-.3,1.842-.24,1.007-.367,1.42-.257.771-.38,1.089c-.164.422-.336.813-.521,1.182a10.529,10.529,0,0,1-1.319,2.024c-.262.317-.548.629-.864.945s-.628.6-.945.864a10.529,10.529,0,0,1-2.024,1.318c-.37.185-.761.357-1.183.521-.318.124-.676.254-1.089.381s-.882.252-1.421.367-1.148.218-1.843.3-1.475.152-2.355.193c-.952.043-1.738.078-2.531.106s-1.6.049-2.579.064-2.15.026-3.674.032-3.4.009-5.815.009-4.292,0-5.816-.009-2.69-.016-3.674-.032-1.785-.036-2.579-.064-1.579-.063-2.531-.106c-.881-.041-1.661-.108-2.355-.194s-1.3-.19-1.842-.3-1.007-.24-1.421-.367-.772-.257-1.091-.38c-.422-.164-.813-.335-1.183-.521a10.769,10.769,0,0,1-1.053-.6,10.655,10.655,0,0,1-.974-.716c-.317-.261-.629-.547-.946-.864s-.6-.628-.864-.945A10.554,10.554,0,0,1,8.487,58.6c-.185-.37-.357-.761-.522-1.183-.124-.318-.253-.676-.38-1.089s-.252-.881-.367-1.42-.219-1.148-.3-1.842-.152-1.474-.193-2.355c-.043-.952-.078-1.738-.105-2.531s-.048-1.6-.063-2.579-.025-2.151-.031-3.674-.008-3.4-.008-5.816,0-4.292.008-5.815.016-2.689.031-3.672.036-1.784.063-2.577.062-1.578.105-2.53c.04-.881.107-1.661.193-2.355s.19-1.3.3-1.842.24-1.007.367-1.421.257-.772.38-1.09c.164-.422.336-.813.521-1.183A10.556,10.556,0,0,1,9.805,11.6c.262-.317.548-.629.864-.946s.629-.6.946-.864a10.671,10.671,0,0,1,.974-.716,10.794,10.794,0,0,1,1.053-.6c.37-.185.761-.357,1.183-.522.318-.124.677-.254,1.09-.381s.882-.252,1.421-.367,1.148-.219,1.843-.3,1.475-.153,2.355-.193c.833-.038,1.539-.069,2.234-.094s1.379-.046,2.17-.061,1.688-.027,2.808-.034S31.208,6.5,32.891,6.5Zm22.527,6a4.312,4.312,0,1,0,1.687.339,4.322,4.322,0,0,0-1.687-.339ZM36.133,17.575a18.494,18.494,0,1,0,7.221,1.458,18.5,18.5,0,0,0-7.221-1.458Zm0,6.511a12.006,12.006,0,1,1-4.688.946A12.006,12.006,0,0,1,36.133,24.086Z" transform="translate(10.344 10.343)" fill="#fff"/>
    </g>
  </g>
</svg>
